<svg width="40" height="40" viewBox="0 0 40 40" fill="none" xmlns="http://www.w3.org/2000/svg">
<g filter="url(#filter0_d_7632_9241)">
<path d="M26.6666 35H13.3333C13.0316 35 12.7355 34.9182 12.4766 34.7631C12.2178 34.6081 12.0059 34.3857 11.8635 34.1196C11.7212 33.8536 11.6537 33.5539 11.6683 33.2525C11.683 32.9511 11.7792 32.6593 11.9466 32.4083L18.6133 22.4083C18.7743 22.1925 18.9836 22.0172 19.2243 21.8964C19.465 21.7756 19.7306 21.7128 20 21.7128C20.2693 21.7128 20.5349 21.7756 20.7756 21.8964C21.0164 22.0172 21.2256 22.1925 21.3866 22.4083L28.0533 32.4083C28.2208 32.6593 28.3169 32.9511 28.3316 33.2525C28.3462 33.5539 28.2788 33.8536 28.1364 34.1196C27.9941 34.3857 27.7822 34.6081 27.5233 34.7631C27.2645 34.9182 26.9684 35 26.6666 35Z" fill="url(#paint0_linear_7632_9241)"/>
</g>
<g filter="url(#filter1_bii_7632_9241)">
<path d="M31.6667 5H8.33337C5.57195 5 3.33337 7.23858 3.33337 10V25C3.33337 27.7614 5.57195 30 8.33337 30H31.6667C34.4281 30 36.6667 27.7614 36.6667 25V10C36.6667 7.23858 34.4281 5 31.6667 5Z" fill="white" fill-opacity="0.2"/>
</g>
<defs>
<filter id="filter0_d_7632_9241" x="9.66638" y="19.7128" width="20.6671" height="17.2872" filterUnits="userSpaceOnUse" color-interpolation-filters="sRGB">
<feFlood flood-opacity="0" result="BackgroundImageFix"/>
<feColorMatrix in="SourceAlpha" type="matrix" values="0 0 0 0 0 0 0 0 0 0 0 0 0 0 0 0 0 0 127 0" result="hardAlpha"/>
<feOffset/>
<feGaussianBlur stdDeviation="1"/>
<feComposite in2="hardAlpha" operator="out"/>
<feColorMatrix type="matrix" values="0 0 0 0 0.12549 0 0 0 0 0.447059 0 0 0 0 0.996078 0 0 0 0.5 0"/>
<feBlend mode="normal" in2="BackgroundImageFix" result="effect1_dropShadow_7632_9241"/>
<feBlend mode="normal" in="SourceGraphic" in2="effect1_dropShadow_7632_9241" result="shape"/>
</filter>
<filter id="filter1_bii_7632_9241" x="-0.666626" y="1" width="41.3334" height="33" filterUnits="userSpaceOnUse" color-interpolation-filters="sRGB">
<feFlood flood-opacity="0" result="BackgroundImageFix"/>
<feGaussianBlur in="BackgroundImageFix" stdDeviation="2"/>
<feComposite in2="SourceAlpha" operator="in" result="effect1_backgroundBlur_7632_9241"/>
<feBlend mode="normal" in="SourceGraphic" in2="effect1_backgroundBlur_7632_9241" result="shape"/>
<feColorMatrix in="SourceAlpha" type="matrix" values="0 0 0 0 0 0 0 0 0 0 0 0 0 0 0 0 0 0 127 0" result="hardAlpha"/>
<feOffset dy="-4"/>
<feGaussianBlur stdDeviation="2"/>
<feComposite in2="hardAlpha" operator="arithmetic" k2="-1" k3="1"/>
<feColorMatrix type="matrix" values="0 0 0 0 1 0 0 0 0 1 0 0 0 0 1 0 0 0 0.05 0"/>
<feBlend mode="normal" in2="shape" result="effect2_innerShadow_7632_9241"/>
<feColorMatrix in="SourceAlpha" type="matrix" values="0 0 0 0 0 0 0 0 0 0 0 0 0 0 0 0 0 0 127 0" result="hardAlpha"/>
<feOffset dx="-4" dy="-4"/>
<feGaussianBlur stdDeviation="2"/>
<feComposite in2="hardAlpha" operator="arithmetic" k2="-1" k3="1"/>
<feColorMatrix type="matrix" values="0 0 0 0 1 0 0 0 0 1 0 0 0 0 1 0 0 0 0.05 0"/>
<feBlend mode="normal" in2="effect2_innerShadow_7632_9241" result="effect3_innerShadow_7632_9241"/>
</filter>
<linearGradient id="paint0_linear_7632_9241" x1="20" y1="21.7128" x2="20" y2="35" gradientUnits="userSpaceOnUse">
<stop offset="0.451042" stop-color="#2072FE"/>
<stop offset="1" stop-color="#07B4EB"/>
</linearGradient>
</defs>
</svg>
