<svg width="26" height="26" viewBox="0 0 26 26" fill="none" xmlns="http://www.w3.org/2000/svg">
<path d="M10.8333 8.66667V5.41667H15.1667V8.66667H17.3333V5.41667C17.3328 4.84221 17.1043 4.29144 16.6981 3.88524C16.2919 3.47903 15.7411 3.25057 15.1667 3.25H10.8333C10.2589 3.25057 9.7081 3.47903 9.30189 3.88524C8.89569 4.29144 8.66723 4.84221 8.66666 5.41667V8.66667H10.8333Z" fill="url(#paint0_linear_7624_1146)"/>
<path opacity="0.25" d="M9.74999 16.25C9.46267 16.25 9.18712 16.1359 8.98396 15.9327C8.78079 15.7295 8.66666 15.454 8.66666 15.1667V13C8.66666 12.7127 8.78079 12.4371 8.98396 12.234C9.18712 12.0308 9.46267 11.9167 9.74999 11.9167C10.0373 11.9167 10.3129 12.0308 10.516 12.234C10.7192 12.4371 10.8333 12.7127 10.8333 13V15.1667C10.8333 15.454 10.7192 15.7295 10.516 15.9327C10.3129 16.1359 10.0373 16.25 9.74999 16.25ZM16.25 16.25C15.9627 16.25 15.6871 16.1359 15.484 15.9327C15.2808 15.7295 15.1667 15.454 15.1667 15.1667V13C15.1667 12.7127 15.2808 12.4371 15.484 12.234C15.6871 12.0308 15.9627 11.9167 16.25 11.9167C16.5373 11.9167 16.8129 12.0308 17.016 12.234C17.2192 12.4371 17.3333 12.7127 17.3333 13V15.1667C17.3333 15.454 17.2192 15.7295 17.016 15.9327C16.8129 16.1359 16.5373 16.25 16.25 16.25Z" fill="url(#paint1_linear_7624_1146)"/>
<path d="M21.6667 14.0833H17.3333V16.25C17.3333 16.5373 17.2192 16.8129 17.016 17.016C16.8129 17.2192 16.5373 17.3333 16.25 17.3333C15.9627 17.3333 15.6871 17.2192 15.484 17.016C15.2808 16.8129 15.1667 16.5373 15.1667 16.25V14.0833H10.8333V16.25C10.8333 16.5373 10.7192 16.8129 10.516 17.016C10.3129 17.2192 10.0373 17.3333 9.74999 17.3333C9.46267 17.3333 9.18712 17.2192 8.98396 17.016C8.78079 16.8129 8.66666 16.5373 8.66666 16.25V14.0833H4.33332C3.75869 14.0833 3.20759 13.8551 2.80126 13.4487C2.39493 13.0424 2.16666 12.4913 2.16666 11.9167V20.5833C2.16666 21.158 2.39493 21.7091 2.80126 22.1154C3.20759 22.5217 3.75869 22.75 4.33332 22.75H21.6667C22.2413 22.75 22.7924 22.5217 23.1987 22.1154C23.605 21.7091 23.8333 21.158 23.8333 20.5833V11.9167C23.8333 12.4913 23.605 13.0424 23.1987 13.4487C22.7924 13.8551 22.2413 14.0833 21.6667 14.0833Z" fill="url(#paint2_linear_7624_1146)"/>
<g filter="url(#filter0_bii_7624_1146)">
<path d="M21.6667 6.5H4.33332C3.75869 6.5 3.20759 6.72827 2.80126 7.1346C2.39493 7.54093 2.16666 8.09203 2.16666 8.66667V13C2.16666 13.5746 2.39493 14.1257 2.80126 14.5321C3.20759 14.9384 3.75869 15.1667 4.33332 15.1667H8.66666V14.0833C8.66666 13.796 8.78079 13.5205 8.98396 13.3173C9.18712 13.1141 9.46267 13 9.74999 13C10.0373 13 10.3129 13.1141 10.516 13.3173C10.7192 13.5205 10.8333 13.796 10.8333 14.0833V15.1667H15.1667V14.0833C15.1667 13.796 15.2808 13.5205 15.484 13.3173C15.6871 13.1141 15.9627 13 16.25 13C16.5373 13 16.8129 13.1141 17.016 13.3173C17.2192 13.5205 17.3333 13.796 17.3333 14.0833V15.1667H21.6667C22.2413 15.1667 22.7924 14.9384 23.1987 14.5321C23.605 14.1257 23.8333 13.5746 23.8333 13V8.66667C23.8333 8.09203 23.605 7.54093 23.1987 7.1346C22.7924 6.72827 22.2413 6.5 21.6667 6.5Z" fill="white" fill-opacity="0.2"/>
</g>
<defs>
<filter id="filter0_bii_7624_1146" x="-1.83334" y="2.5" width="29.6667" height="16.6667" filterUnits="userSpaceOnUse" color-interpolation-filters="sRGB">
<feFlood flood-opacity="0" result="BackgroundImageFix"/>
<feGaussianBlur in="BackgroundImageFix" stdDeviation="2"/>
<feComposite in2="SourceAlpha" operator="in" result="effect1_backgroundBlur_7624_1146"/>
<feBlend mode="normal" in="SourceGraphic" in2="effect1_backgroundBlur_7624_1146" result="shape"/>
<feColorMatrix in="SourceAlpha" type="matrix" values="0 0 0 0 0 0 0 0 0 0 0 0 0 0 0 0 0 0 127 0" result="hardAlpha"/>
<feOffset dy="-4"/>
<feGaussianBlur stdDeviation="2"/>
<feComposite in2="hardAlpha" operator="arithmetic" k2="-1" k3="1"/>
<feColorMatrix type="matrix" values="0 0 0 0 1 0 0 0 0 1 0 0 0 0 1 0 0 0 0.05 0"/>
<feBlend mode="normal" in2="shape" result="effect2_innerShadow_7624_1146"/>
<feColorMatrix in="SourceAlpha" type="matrix" values="0 0 0 0 0 0 0 0 0 0 0 0 0 0 0 0 0 0 127 0" result="hardAlpha"/>
<feOffset dx="-4" dy="-4"/>
<feGaussianBlur stdDeviation="2"/>
<feComposite in2="hardAlpha" operator="arithmetic" k2="-1" k3="1"/>
<feColorMatrix type="matrix" values="0 0 0 0 1 0 0 0 0 1 0 0 0 0 1 0 0 0 0.05 0"/>
<feBlend mode="normal" in2="effect2_innerShadow_7624_1146" result="effect3_innerShadow_7624_1146"/>
</filter>
<linearGradient id="paint0_linear_7624_1146" x1="13" y1="3.25" x2="13" y2="8.66667" gradientUnits="userSpaceOnUse">
<stop offset="0.451042" stop-color="#2072FE"/>
<stop offset="1" stop-color="#07B4EB"/>
</linearGradient>
<linearGradient id="paint1_linear_7624_1146" x1="13" y1="11.9167" x2="13" y2="16.25" gradientUnits="userSpaceOnUse">
<stop offset="0.451042" stop-color="#2072FE"/>
<stop offset="1" stop-color="#07B4EB"/>
</linearGradient>
<linearGradient id="paint2_linear_7624_1146" x1="13" y1="11.9167" x2="13" y2="22.75" gradientUnits="userSpaceOnUse">
<stop offset="0.451042" stop-color="#2072FE"/>
<stop offset="1" stop-color="#07B4EB"/>
</linearGradient>
</defs>
</svg>
