<svg width="300" height="300" viewBox="0 0 300 300" fill="none" xmlns="http://www.w3.org/2000/svg">
<rect width="300" height="300" rx="50" fill="#D5F2FC"/>
<circle cx="150" cy="225" r="35" fill="#06816D"/>
<circle cx="75" cy="155" r="35" fill="#06816D"/>
<path fill-rule="evenodd" clip-rule="evenodd" d="M114.998 75.3093C114.833 99.9167 94.916 119.833 70.3086 119.999C72.7686 139.731 89.6008 155 109.999 155C109.999 131.931 127.358 112.916 149.727 110.306C147.595 92.0677 133.194 77.5778 114.998 75.3093Z" fill="#06816D"/>
<circle cx="150" cy="75" r="35" fill="#06816D"/>
<path fill-rule="evenodd" clip-rule="evenodd" d="M147.303 110.058C149.658 90.9473 165.491 76.0098 185 75.0491C185.026 98.7716 203.407 118.195 226.706 119.881C224.417 138.693 209.069 153.475 190 154.889C189.942 130.859 171.049 111.255 147.303 110.058Z" fill="#06816D"/>
<circle cx="225" cy="155" r="35" fill="#06816D"/>
</svg>
