<svg width="41" height="41" viewBox="0 0 41 41" fill="none" xmlns="http://www.w3.org/2000/svg">
<path opacity="0.5" d="M18.7917 20.5L20.5 3.41669C29.9351 3.41669 37.5833 11.0649 37.5833 20.5H18.7917Z" fill="url(#paint0_linear_7624_1177)"/>
<path d="M18.7917 20.5L29.0417 35.2942C31.6374 33.7935 33.793 31.6367 35.2922 29.0401C36.7914 26.4435 37.5815 23.4983 37.5833 20.5H18.7917Z" fill="url(#paint1_linear_7624_1177)"/>
<g filter="url(#filter0_bii_7624_1177)">
<path d="M29.0417 35.2942L20.5 20.5V3.41669C11.0649 3.4201 3.41837 11.07 3.42178 20.5051C3.4252 29.9403 11.0751 37.5868 20.512 37.5834C23.5064 37.5822 26.4479 36.7939 29.0417 35.2976L29.0468 35.2891L29.04 35.2942H29.0417Z" fill="white" fill-opacity="0.2"/>
</g>
<defs>
<filter id="filter0_bii_7624_1177" x="-0.578217" y="-0.583313" width="33.625" height="42.1667" filterUnits="userSpaceOnUse" color-interpolation-filters="sRGB">
<feFlood flood-opacity="0" result="BackgroundImageFix"/>
<feGaussianBlur in="BackgroundImageFix" stdDeviation="2"/>
<feComposite in2="SourceAlpha" operator="in" result="effect1_backgroundBlur_7624_1177"/>
<feBlend mode="normal" in="SourceGraphic" in2="effect1_backgroundBlur_7624_1177" result="shape"/>
<feColorMatrix in="SourceAlpha" type="matrix" values="0 0 0 0 0 0 0 0 0 0 0 0 0 0 0 0 0 0 127 0" result="hardAlpha"/>
<feOffset dy="-4"/>
<feGaussianBlur stdDeviation="2"/>
<feComposite in2="hardAlpha" operator="arithmetic" k2="-1" k3="1"/>
<feColorMatrix type="matrix" values="0 0 0 0 1 0 0 0 0 1 0 0 0 0 1 0 0 0 0.05 0"/>
<feBlend mode="normal" in2="shape" result="effect2_innerShadow_7624_1177"/>
<feColorMatrix in="SourceAlpha" type="matrix" values="0 0 0 0 0 0 0 0 0 0 0 0 0 0 0 0 0 0 127 0" result="hardAlpha"/>
<feOffset dx="-4" dy="-4"/>
<feGaussianBlur stdDeviation="2"/>
<feComposite in2="hardAlpha" operator="arithmetic" k2="-1" k3="1"/>
<feColorMatrix type="matrix" values="0 0 0 0 1 0 0 0 0 1 0 0 0 0 1 0 0 0 0.05 0"/>
<feBlend mode="normal" in2="effect2_innerShadow_7624_1177" result="effect3_innerShadow_7624_1177"/>
</filter>
<linearGradient id="paint0_linear_7624_1177" x1="28.1875" y1="3.41669" x2="28.1875" y2="20.5" gradientUnits="userSpaceOnUse">
<stop offset="0.451042" stop-color="#1462B1"/>
<stop offset="1" stop-color="#07B4EB"/>
</linearGradient>
<linearGradient id="paint1_linear_7624_1177" x1="28.1875" y1="20.5" x2="28.1875" y2="35.2942" gradientUnits="userSpaceOnUse">
<stop offset="0.451042" stop-color="#1462B1"/>
<stop offset="1" stop-color="#07B4EB"/>
</linearGradient>
</defs>
</svg>
